<svg height="20" viewBox="0 0 20 20" width="20" xmlns="http://www.w3.org/2000/svg"><path d="m8 11c.2821 0 .54033.1583.66834.4097.12801.2513.10413.5533-.06178.7814l-3.13373 4.3089h2.52717c.41422 0 .75.3358.75.75s-.33578.75-.75.75h-4c-.28209 0-.54033-.1583-.66833-.4097-.12801-.2513-.10414-.5533.06178-.7814l3.13373-4.3089h-2.52718c-.41421 0-.75-.3358-.75-.75s.33579-.75.75-.75zm5.5000006-9c.4141994 0 .7499994.33579.7499994.75v12.7741l2.4883-2.3224c.3028-.2826.7774-.2662 1.06.0366s.2663.7774-.0366 1.06l-3.75 3.5c-.2881.2689-.7353.2689-1.0234 0l-3.75004-3.5c-.30281-.2826-.31917-.7572-.03655-1.06.28263-.3028.75722-.3192 1.05999-.0366l2.4883 2.3224v-12.7741c0-.41421.3358-.75.7500006-.75zm-7.4999806 0c.31965 0 .60418.2026.70874.50467l2.25 6.5c.13549.39142-.07198.81858-.46341.95407-.39142.13546-.81858-.07198-.95407-.46341l-.34454-.99533h-2.39344l-.34454.99533c-.13549.39143-.56265.59887-.95407.46341-.39143-.13549-.5989-.56265-.46341-.95407l2.25-6.5c.10456-.30207.38909-.50467.70874-.50467zm0 3.0428-.67749 1.9572h1.35498z" fill="#ffffff"/></svg>