<svg height="20" viewBox="0 0 20 20" width="20" xmlns="http://www.w3.org/2000/svg"><path d="m13.5000006 2c.4141994 0 .7499994.33579.7499994.75v12.7741l2.4883-2.3224c.3028-.2826.7774-.2662 1.06.0366s.2663.7774-.0366 1.06l-3.75 3.5c-.2881.2689-.7353.2689-1.0234 0l-3.75004-3.5c-.30281-.2826-.31917-.7572-.03655-1.06.28263-.3028.75722-.3192 1.05999-.0366l2.4883 2.3224v-12.7741c0-.41421.3358-.75.7500006-.75zm-7.4999806 8c.31965 0 .60418.2026.70874.5047l2.25 6.5c.13549.3914-.07198.8185-.46341.954-.39142.1355-.81858-.0719-.95407-.4634l-.34454-.9953h-2.39344l-.34454.9953c-.13549.3915-.56265.5989-.95407.4634-.39143-.1355-.5989-.5626-.46341-.954l2.25-6.5c.10456-.3021.38909-.5047.70874-.5047zm0 3.0428-.67749 1.9572h1.35498zm1.99998-11.0428c.2821 0 .54033.15829.66834.40967.12801.25137.10413.55332-.06178.78146l-3.13373 4.30887h2.52717c.41422 0 .75.33579.75.75s-.33578.75-.75.75h-4c-.28209 0-.54033-.15829-.66833-.40967-.12801-.25137-.10414-.55332.06178-.78146l3.13373-4.30887h-2.52718c-.41421 0-.75-.33579-.75-.75s.33579-.75.75-.75z" fill="#ffffff"/></svg>